<svg width="23" height="23" viewBox="0 0 23 23" fill="none" xmlns="http://www.w3.org/2000/svg">
  <path fill-rule="evenodd" clip-rule="evenodd" d="M0.627287 6.85931C0.0192688 8.12758 0.232706 9.61092 0.659581 12.5776L0.973193 14.7571C1.52154 18.568 1.79571 20.4734 3.11766 21.6117C4.4396 22.75 6.37829 22.75 10.2557 22.75H12.7443C16.6217 22.75 18.5604 22.75 19.8823 21.6117C21.2043 20.4734 21.4785 18.568 22.0268 14.7571L22.3404 12.5776C22.7673 9.61092 22.9807 8.12758 22.3727 6.85931C21.7647 5.59105 20.4705 4.82013 17.8822 3.27828L16.3243 2.35023C13.9738 0.950076 12.7986 0.25 11.5 0.25C10.2014 0.25 9.02617 0.950077 6.67572 2.35023L5.11778 3.27829C2.52946 4.82013 1.23531 5.59105 0.627287 6.85931ZM7.28136 18.2498C7.28136 17.7838 7.65912 17.406 8.12511 17.406H14.8751C15.3411 17.406 15.7189 17.7838 15.7189 18.2498C15.7189 18.7158 15.3411 19.0935 14.8751 19.0935H8.12511C7.65912 19.0935 7.28136 18.7158 7.28136 18.2498Z" fill="#900E0E"/>
  </svg>
  