<svg width="27" height="27" viewBox="0 0 27 27" fill="none" xmlns="http://www.w3.org/2000/svg">
<path fill-rule="evenodd" clip-rule="evenodd" d="M2.62729 8.85931C2.01927 10.1276 2.23271 11.6109 2.65958 14.5776L2.97319 16.7571C3.52154 20.568 3.79571 22.4734 5.11766 23.6117C6.4396 24.75 8.37829 24.75 12.2557 24.75H14.7443C18.6217 24.75 20.5604 24.75 21.8823 23.6117C23.2043 22.4734 23.4785 20.568 24.0268 16.7571L24.3404 14.5776C24.7673 11.6109 24.9807 10.1276 24.3727 8.85931C23.7647 7.59105 22.4705 6.82013 19.8822 5.27828L18.3243 4.35023C15.9738 2.95008 14.7986 2.25 13.5 2.25C12.2014 2.25 11.0262 2.95008 8.67572 4.35023L7.11778 5.27829C4.52946 6.82013 3.23531 7.59105 2.62729 8.85931ZM9.28136 20.2498C9.28136 19.7838 9.65912 19.406 10.1251 19.406H16.8751C17.3411 19.406 17.7189 19.7838 17.7189 20.2498C17.7189 20.7158 17.3411 21.0935 16.8751 21.0935H10.1251C9.65912 21.0935 9.28136 20.7158 9.28136 20.2498Z" fill="#D3D1D8"/>
</svg>
