<svg width="23" height="22" viewBox="0 0 23 22" fill="none" xmlns="http://www.w3.org/2000/svg">
<g clip-path="url(#clip0_291_304)">
<path d="M11.776 0C15.3927 0 18.7416 1.5345 20.9622 4.1184C21.0255 4.19164 21.0727 4.27631 21.101 4.36737C21.1294 4.45842 21.1383 4.554 21.1273 4.64842C21.1162 4.74284 21.0854 4.83416 21.0367 4.91697C20.988 4.99977 20.9224 5.07235 20.8438 5.1304C20.6837 5.25041 20.481 5.30605 20.2788 5.28552C20.0765 5.26498 19.8906 5.16988 19.7605 5.0204C18.7894 3.89535 17.5694 2.99049 16.1885 2.37113C14.8075 1.75176 13.3001 1.43332 11.7748 1.4388C6.1226 1.4388 1.53985 5.72 1.53985 11C1.53985 16.28 6.1226 20.5612 11.7748 20.5612C13.322 20.5669 14.8507 20.2392 16.2475 19.6026C17.6442 18.9661 18.8732 18.0368 19.8432 16.8839C19.9712 16.7329 20.1556 16.6354 20.3574 16.6122C20.5592 16.589 20.7625 16.6419 20.9242 16.7596C21.0036 16.8167 21.0701 16.8884 21.1199 16.9705C21.1696 17.0527 21.2016 17.1435 21.214 17.2377C21.2263 17.3319 21.2187 17.4275 21.1917 17.5188C21.1646 17.6102 21.1187 17.6954 21.0565 17.7694C18.8393 20.4204 15.4456 22 11.776 22C5.27045 22 0 17.0753 0 11C0 4.9247 5.2716 0 11.776 0ZM19.6627 7.876L22.7746 10.8537C23.0759 11.1408 23.0816 11.6017 22.7884 11.8833L19.7478 14.7906C19.6035 14.9256 19.4091 15.0003 19.2072 14.9983C19.0054 14.9962 18.8126 14.9176 18.6714 14.7796C18.5997 14.7128 18.5426 14.6331 18.5031 14.5451C18.4637 14.4571 18.4428 14.3625 18.4416 14.2668C18.4404 14.171 18.459 14.076 18.4963 13.9871C18.5335 13.8983 18.5887 13.8173 18.6588 13.7489L20.4378 12.0472H8.5813C8.48132 12.0484 8.38208 12.0307 8.28925 11.9952C8.19642 11.9596 8.11182 11.907 8.04027 11.8402C7.96872 11.7733 7.91163 11.6937 7.87226 11.6058C7.83288 11.5179 7.812 11.4234 7.8108 11.3278C7.8108 10.9296 8.1558 10.6073 8.5813 10.6073H20.3906L18.5989 8.8935C18.4546 8.75856 18.3721 8.57428 18.3697 8.38121C18.3674 8.18813 18.4453 8.00205 18.5863 7.8639C18.7307 7.729 18.9253 7.65449 19.1271 7.65676C19.329 7.65903 19.5216 7.73789 19.6627 7.876Z" fill="white"/>
</g>
<defs>
<clipPath id="clip0_291_304">
<rect width="23" height="22" fill="white"/>
</clipPath>
</defs>
</svg>
