<svg width="22" height="18" viewBox="0 0 22 18" fill="none" xmlns="http://www.w3.org/2000/svg">
<path d="M10.3254 13.95C10.4672 14.1293 10.7164 14.2488 11 14.2488C11.2836 14.2488 11.5328 14.1293 11.6789 13.95L16.4141 7.96641C17.05 7.16133 17.4195 6.27539 17.4195 5.24883C17.4152 2.28164 14.5664 0 11 0C7.43358 0 4.58475 2.28164 4.58475 5.24883C4.58475 6.27539 4.95428 7.16133 5.59022 7.96641L10.3254 13.95ZM11 2.25C13.0238 2.25 14.6652 3.59297 14.6652 5.24883C14.6652 6.90469 13.0238 8.24766 11 8.24766C8.97616 8.24766 7.33475 6.90469 7.33475 5.24883C7.33475 3.59297 8.97616 2.25 11 2.25ZM15.7008 11.373L11 16.4988L6.29921 11.373C4.69218 12.0621 3.66522 13.0922 3.66522 14.2488C3.66522 16.3195 6.94804 18 11 18C15.0519 18 18.3348 16.3195 18.3348 14.2488C18.3348 13.0922 17.3078 12.0621 15.7008 11.373Z" fill="#0A4FFF"/>
</svg>
